<svg id="Layer_1" data-name="Layer 1" xmlns="http://www.w3.org/2000/svg" viewBox="0 0 671.3 696.21"><defs><style>.cls-1{fill:#fff;}.cls-2{fill:none;stroke:#fff;stroke-miterlimit:10;stroke-width:4px;}</style></defs><path class="cls-1" d="M131.48,557.37c.76-.25,1.45-1.26,2.09-3a23.75,23.75,0,0,0,1-7.61v-67.9q0-9.51-2.38-14.07a18.93,18.93,0,0,0-6-7h28q-5,4.19-6.18,9a51.38,51.38,0,0,0-1.24,12.45v85.4q0,8.94.29,16.55a45.13,45.13,0,0,0,1.8,12.17l-124.39-100c-.76.25-1.45,1.23-2.09,2.94a24.5,24.5,0,0,0-.95,7.9v65.24q0,9.32,2.28,14.17a17.22,17.22,0,0,0,6.09,7.32H1q5.52-4.19,6.94-9.32A49.25,49.25,0,0,0,9.37,568.6V487.38q0-3.79-.29-8.75a84.31,84.31,0,0,0-1.14-9.79,63.79,63.79,0,0,0-2.28-9.13A18.29,18.29,0,0,0,2,453Z"/><path class="cls-1" d="M209.65,457.71a32.71,32.71,0,0,0-6.76,7.89q-2.56,4.29-2.56,11.13v95.1q0,6.84,2.56,11.13a32.71,32.71,0,0,0,6.76,7.89H172a32.88,32.88,0,0,0,6.75-7.89q2.56-4.29,2.57-11.13v-95.1q0-6.84-2.57-11.13a32.88,32.88,0,0,0-6.75-7.89Z"/><path class="cls-1" d="M262.23,511A259.86,259.86,0,0,1,237,471.41a38,38,0,0,0-5.89-8.47,25.83,25.83,0,0,0-7.42-5.23H262a11,11,0,0,0-4.19,8.94,25.58,25.58,0,0,0,2.48,10.18,77.09,77.09,0,0,0,6.37,11.5q3.9,5.9,8.75,11.89t9.7,11.22q4.85,5.23,9.17,9.32t7,6.37a9.82,9.82,0,0,0,1.92,1.52,3.44,3.44,0,0,0,1.73.58,3.34,3.34,0,0,0,1.93-.67,12.9,12.9,0,0,0,1.73-1.43A149.6,149.6,0,0,0,320,514.39q6.52-8,12.3-16.64A132.33,132.33,0,0,0,342,480.63q4-8.46,4-14.55,0-5.9-5.7-8.37h27.2q-.19,3.81-3.42,10.27a163.6,163.6,0,0,1-8.15,14.27q-4.94,7.8-11.18,16.26T332.15,515q-6.34,8-12.32,14.84T309.5,541.21v30.62a23.4,23.4,0,0,0,.93,6.85,22.4,22.4,0,0,0,2.43,5.42,21.62,21.62,0,0,0,3.26,4.09,17.55,17.55,0,0,0,3.46,2.66H279.83a23.1,23.1,0,0,0,6.94-6.75c2.21-3.11,3.33-7.2,3.33-12.27V542A277.59,277.59,0,0,1,262.23,511Z"/><path class="cls-1" d="M349.25,590.85A46.69,46.69,0,0,1,353,575.54a141.17,141.17,0,0,1,7.13-14.93q4.38-8.18,10-17.5t11.5-19q5.9-9.71,11.7-19.4t10.65-18.93q4.85-9.21,8.27-17.49A81.18,81.18,0,0,0,417,453.34l61.43,118.87a45.9,45.9,0,0,0,7.9,11.32,35.44,35.44,0,0,0,9.6,7.32h-39a17.24,17.24,0,0,0,2.19-4.47,16.42,16.42,0,0,0,.85-5.23,15.26,15.26,0,0,0-.57-4H371.5a9.49,9.49,0,0,0-.19,1.72v1.52a19,19,0,0,0,.95,6.18,7.92,7.92,0,0,0,3.43,4.28Zm65.24-103.66a153.74,153.74,0,0,1-8.28,16.36q-5.61,9.88-11.88,21.11t-12,22.73a152.08,152.08,0,0,0-8.74,21h82.73Z"/><path class="cls-1" d="M503.69,508.87a52.15,52.15,0,0,0,6.65-11,26.3,26.3,0,0,0,2.29-10.46,10.31,10.31,0,0,0-1.05-4.85,7.45,7.45,0,0,0-2.57-2.95,23.9,23.9,0,0,1-4.18-4.56,10.5,10.5,0,0,1-1.9-6.28,12.26,12.26,0,0,1,4-9,13.37,13.37,0,0,1,9.7-3.9,13.68,13.68,0,0,1,9.51,3.61,12.22,12.22,0,0,1,4,9.51,31,31,0,0,1-1.52,8.85,44.91,44.91,0,0,1-4.85,10.46,72.74,72.74,0,0,1-8.27,10.84A58.48,58.48,0,0,1,503.69,508.87Z"/><path class="cls-1" d="M649.19,550.72A19.28,19.28,0,0,0,644.91,538a33.55,33.55,0,0,0-11.32-8.55,79.11,79.11,0,0,0-16.07-5.62q-9-2.17-18.45-4.08t-18.45-4.09A79.11,79.11,0,0,1,564.55,510a35,35,0,0,1-11.32-8.36A18.52,18.52,0,0,1,549,489.09a23.47,23.47,0,0,1,4.86-14.45,39.5,39.5,0,0,1,13.12-10.94,75.36,75.36,0,0,1,19-6.94,101,101,0,0,1,22.73-2.47q16.16,0,28.43,3.71a65.81,65.81,0,0,1,20.83,10.17l-6.66,9.51a66.24,66.24,0,0,0-17-9.79q-10.37-4.29-26.53-4.28a60.29,60.29,0,0,0-14.65,1.71,46.4,46.4,0,0,0-12,4.66,25.78,25.78,0,0,0-8.18,7.13,14.91,14.91,0,0,0-3,8.94,9.2,9.2,0,0,0,4.28,7.8,39.89,39.89,0,0,0,11.41,5.23q7.13,2.19,16.07,4.09T620,507.26q9.42,2.19,18.45,5.23a73.16,73.16,0,0,1,16.17,7.61A37.05,37.05,0,0,1,666,531.32a28.93,28.93,0,0,1,4.28,16A40.31,40.31,0,0,1,665.55,567a42.2,42.2,0,0,1-13.32,14.55,64.75,64.75,0,0,1-20.54,9,104.72,104.72,0,0,1-26.63,3.14,113.76,113.76,0,0,1-22.35-2,88.41,88.41,0,0,1-18.06-5.51A72.46,72.46,0,0,1,550.29,578a90.49,90.49,0,0,1-11.23-9.79l8.75-8.56A73.19,73.19,0,0,0,573.3,578.2a76.27,76.27,0,0,0,30.24,6q12.56,0,21.21-2.85a41.08,41.08,0,0,0,14.07-7.51,28,28,0,0,0,7.9-10.75A32.76,32.76,0,0,0,649.19,550.72Z"/><path class="cls-1" d="M129.71,694.72V652.08h4v19.21h9l15.12-19.21h4.46L146,672.9l16.55,21.82h-4.65l-15.12-19.9h-9v19.9Z"/><path class="cls-1" d="M197.76,694.72V652.08h4v42.64Z"/><path class="cls-1" d="M251.07,694.72V655.67H237.18v-3.59h31.74v3.59H255v39.05Z"/><path class="cls-1" d="M318.75,695.21a49.21,49.21,0,0,1-7.35-.46,11.67,11.67,0,0,1-4.89-1.77,8.36,8.36,0,0,1-2.92-3.69A21.42,21.42,0,0,1,302.2,683q-.37-3.9-.37-9.6t.37-9.52a21.89,21.89,0,0,1,1.39-6.29,8.39,8.39,0,0,1,2.92-3.72,12.1,12.1,0,0,1,4.89-1.79,46.14,46.14,0,0,1,7.35-.5c1.11,0,2.26,0,3.44.09s2.31.16,3.41.28a23,23,0,0,1,2.88.5v3.28c-.91-.12-1.87-.23-2.88-.34s-2-.17-3-.21-1.93-.07-2.76-.07a55.68,55.68,0,0,0-6.38.31,9.82,9.82,0,0,0-4.06,1.27,5.91,5.91,0,0,0-2.29,2.95,18.88,18.88,0,0,0-1,5.33c-.16,2.23-.25,5-.25,8.43s.09,6.19.25,8.43a19,19,0,0,0,1,5.33,5.84,5.84,0,0,0,2.29,2.94,9.67,9.67,0,0,0,4.06,1.27,53.47,53.47,0,0,0,6.38.31c1.41,0,2.93-.06,4.59-.18s3.1-.27,4.34-.44v3.41a29.11,29.11,0,0,1-3,.4c-1.16.11-2.34.19-3.53.25S319.82,695.21,318.75,695.21Z"/><path class="cls-1" d="M365.67,694.72V652.08h4v19.33h24.42V652.08h4v42.64h-4V675H369.63v19.77Z"/><path class="cls-1" d="M437.81,694.72V652.08H465v3.53H441.77v15.8H462V675H441.77v16.24H465v3.53Z"/><path class="cls-1" d="M501.71,694.72V652.08h4L530,687.34h.25V652.08h3.84v42.64h-3.84L505.8,659.08h-.25v35.64Z"/><path class="cls-1" d="M336.43,1A150,150,0,0,0,200.2,85.39V8.88A7.78,7.78,0,0,0,193.38,1a7.56,7.56,0,0,0-8.3,7.52V373.78h10.41l4.71-4.7,99.54-99.19,102,101.65a7.56,7.56,0,0,0,10.67-10.71l-102-101.61L414.74,155.3a7.87,7.87,0,0,0,1.2-10,7.57,7.57,0,0,0-11.57-1.06L299.74,248.55,289,259.22,200.2,347.74V152.65c0-74.21,59.25-135.78,133.45-136.5,74.92-.72,136.11,60,136.11,134.78v215a7.78,7.78,0,0,0,6.82,7.85,7.56,7.56,0,0,0,8.3-7.52V153C484.88,70.45,419,1.82,336.43,1Z"/><path class="cls-1" d="M278.14,193.18a2.12,2.12,0,0,0,3.3,1.54,2.58,2.58,0,0,0,1.13-2.44q.18-11.88.38-23.77c0-.5.05-.75.65-.83,9.57-1.3,16.54-6.49,21.28-14.86a42.91,42.91,0,0,0,5.19-18.72c.84-12.65-2.78-23.58-11.62-32.5a41.89,41.89,0,0,0-4.31-3.79,45,45,0,0,0-11.56-6.53,2,2,0,0,0-1.67,0c-1.31.57-2.62,1.13-3.89,1.81a47.36,47.36,0,0,0-19.66,18.82c-7.24,13-6.4,30.62-.37,41.66,4.5,8.23,11.29,13.32,20.92,14.27.62.06.62.35.61.82q-.21,11.76-.4,23.54A7.49,7.49,0,0,0,278.14,193.18ZM266.36,132c.32.38.69.72,1,1.08L278,143.61a1.48,1.48,0,0,1,.49,1.17q-.14,8.92-.21,17.85c0,.65-.15.8-.8.71a20.71,20.71,0,0,1-13.08-7c-4.27-4.8-6.41-10.61-7.27-17-1.05-7.71-.5-15.33,2.71-22.67,3.89-8.9,10.45-15.3,19.05-19.63,3.46-1.75,2.21-1.7,5.62,0a37.66,37.66,0,0,1,16.23,14.58c4.12,6.82,5.47,14.36,4.93,22.37a39.17,39.17,0,0,1-4.28,16.08c-3.4,6.31-8.29,10.84-15.36,12.65-.68.18-1.38.25-2.05.41s-.95,0-.93-.76q.18-6.33.21-12.65a3,3,0,0,1,1-2.3c3.58-3.52,7.11-7.08,10.66-10.63a7.51,7.51,0,0,0,.66-.72,2.24,2.24,0,0,0-3.32-3q-4.14,4.09-8.24,8.23l-.74.74a1.54,1.54,0,0,1-.12-.94q.12-7.89.26-15.77a2.36,2.36,0,0,0-.88-2.18,2.16,2.16,0,0,0-2.34-.17,2.31,2.31,0,0,0-1.31,2.16q-.08,4.81-.16,9.61c0,.9,0,1.8,0,2.89-.35-.31-.56-.49-.75-.68l-7.64-7.62a5.34,5.34,0,0,0-.89-.76,2.33,2.33,0,0,0-3.05,3.4Z"/><path class="cls-1" d="M433.1,237l-12.49,12.59-1.45-1.44,12.63-12.72a1,1,0,0,0-1.38-1.38l-12.63,12.73-1.45-1.44L429,232.57a.95.95,0,1,0-1.34-1.34L415,244l-1.45-1.44L426,230a1.17,1.17,0,1,0-1.66-1.65L411,241.76a7.31,7.31,0,0,0-1,9.08l-4.64,4.29A31.09,31.09,0,0,0,397,243.07c-9.7-8.55-17.45-8.19-17.77-8.18l-1,.07,23.62,23.46-1,.88h0c-9.64,8.95-22.51,21.08-23.53,23.35l0,.09a2.51,2.51,0,0,0,3.34,3.31l.08,0c2.28-1.05,14.45-14.16,23.35-23.89l.66-.72,1,1.06,1.11,1.21h0l.3.33c9.19,10,20,21.52,22,22.43a2.56,2.56,0,0,0,1.49.21,2.53,2.53,0,0,0,1.8-1.33,2.45,2.45,0,0,0,.07-2.16c-.95-2.09-12-12.27-22.62-22l-.33-.3,0,0h0l-1.2-1.12s-.62-.55-1.18-1.07c2.14-2.36,3.95-4.35,5.1-5.6a7.61,7.61,0,0,0,9.29-1.26l13.14-13.23A1.17,1.17,0,0,0,433.1,237Z"/><rect class="cls-2" x="-4570.24" y="-290.15" width="5497.28" height="1426.16"/></svg>